<svg width="49" height="40" viewBox="0 0 49 40" fill="none" xmlns="http://www.w3.org/2000/svg">
<path d="M35.7969 36.9512H28.7305V35.0527H20.2695V36.9512H13.2031C12.4265 36.9512 11.7969 37.5808 11.7969 38.3574C11.7969 39.134 12.4265 39.7637 13.2031 39.7637H35.7969C36.5735 39.7637 37.2031 39.134 37.2031 38.3574C37.2031 37.5808 36.5735 36.9512 35.7969 36.9512Z" fill="url(#paint0_linear_6918_5804)"/>
<path d="M17.4395 15.7755C19.0025 15.7755 20.2696 14.5084 20.2696 12.9454C20.2696 11.3823 19.0025 10.1152 17.4395 10.1152C15.8765 10.1152 14.6094 11.3823 14.6094 12.9454C14.6094 14.5084 15.8765 15.7755 17.4395 15.7755Z" fill="url(#paint1_linear_6918_5804)"/>
<path d="M47.0938 0.236328H1.90625C1.12962 0.236328 0.5 0.865953 0.5 1.64258V25.6543H48.5V1.64258C48.5 0.865859 47.8704 0.236328 47.0938 0.236328ZM24.5 14.3515H22.9046C22.7719 14.8651 22.567 15.3572 22.296 15.8132L23.4263 16.9434C23.9755 17.4926 23.9755 18.383 23.4263 18.9321C23.1517 19.2067 22.7918 19.3441 22.432 19.3441C22.0722 19.3441 21.7122 19.2068 21.4377 18.9321L20.3074 17.8019C19.8514 18.0728 19.3593 18.2777 18.8458 18.4104V20.0059C18.8458 20.7825 18.2161 21.4121 17.4395 21.4121C16.6629 21.4121 16.0333 20.7825 16.0333 20.0059V18.4104C15.5197 18.2777 15.0276 18.0728 14.5716 17.8019L13.4412 18.9321C13.1667 19.2067 12.8068 19.3441 12.4469 19.3441C12.0871 19.3441 11.7271 19.2068 11.4526 18.9321C10.9034 18.383 10.9034 17.4926 11.4526 16.9434L12.5829 15.8132C12.3119 15.3572 12.107 14.8651 11.9743 14.3515H10.3789C9.60228 14.3515 8.97266 13.7219 8.97266 12.9453C8.97266 12.1686 9.60228 11.539 10.3789 11.539H11.9743C12.107 11.0255 12.3119 10.5333 12.5829 10.0774L11.4526 8.94711C10.9034 8.39792 10.9034 7.50758 11.4526 6.95839C12.0017 6.4092 12.8922 6.4092 13.4413 6.95839L14.5716 8.08864C15.0276 7.81768 15.5197 7.6128 16.0333 7.48011V5.88467C16.0333 5.10805 16.6629 4.47842 17.4395 4.47842C18.2161 4.47842 18.8458 5.10805 18.8458 5.88467V7.48011C19.3593 7.6128 19.8514 7.81768 20.3074 8.08864L21.4377 6.95839C21.9868 6.4092 22.8772 6.4092 23.4264 6.95839C23.9756 7.50758 23.9756 8.39792 23.4264 8.94711L22.2961 10.0774C22.5671 10.5333 22.772 11.0255 22.9047 11.539H24.5C25.2766 11.539 25.9062 12.1686 25.9062 12.9453C25.9062 13.7219 25.2766 14.3515 24.5 14.3515ZM38.6211 20H30.1484C29.3718 20 28.7422 19.3703 28.7422 18.5937C28.7422 17.8171 29.3718 17.1875 30.1484 17.1875H38.6211C39.3977 17.1875 40.0273 17.8171 40.0273 18.5937C40.0273 19.3703 39.3977 20 38.6211 20ZM38.6211 14.3515H30.1484C29.3718 14.3515 28.7422 13.7219 28.7422 12.9453C28.7422 12.1686 29.3718 11.539 30.1484 11.539H38.6211C39.3977 11.539 40.0273 12.1686 40.0273 12.9453C40.0273 13.7219 39.3977 14.3515 38.6211 14.3515ZM38.6211 8.70308H30.1484C29.3718 8.70308 28.7422 8.07345 28.7422 7.29683C28.7422 6.5202 29.3718 5.89058 30.1484 5.89058H38.6211C39.3977 5.89058 40.0273 6.5202 40.0273 7.29683C40.0273 8.07345 39.3977 8.70308 38.6211 8.70308ZM0.5 30.8339C0.5 31.6105 1.12962 32.2401 1.90625 32.2401H47.0938C47.8704 32.2401 48.5 31.6105 48.5 30.8339V28.4667H0.5V30.8339Z" fill="url(#paint2_linear_6918_5804)"/>
<defs>
<linearGradient id="paint0_linear_6918_5804" x1="11.7969" y1="39.7637" x2="37.2412" y2="35.2684" gradientUnits="userSpaceOnUse">
<stop offset="0.00491534" stop-color="#456AEB"/>
<stop offset="1" stop-color="#DF5788"/>
</linearGradient>
<linearGradient id="paint1_linear_6918_5804" x1="14.6094" y1="15.7755" x2="20.4488" y2="15.5842" gradientUnits="userSpaceOnUse">
<stop offset="0.00491534" stop-color="#456AEB"/>
<stop offset="1" stop-color="#DF5788"/>
</linearGradient>
<linearGradient id="paint2_linear_6918_5804" x1="0.5" y1="32.2401" x2="49.9531" y2="29.8104" gradientUnits="userSpaceOnUse">
<stop offset="0.00491534" stop-color="#456AEB"/>
<stop offset="1" stop-color="#DF5788"/>
</linearGradient>
</defs>
</svg>
