<svg width="61" height="61" viewBox="0 0 61 61" fill="none" xmlns="http://www.w3.org/2000/svg">
<path d="M59.3263 25.3264L56.1302 24.2002C55.488 21.5356 54.4382 19.007 52.9995 16.6591L54.4456 13.7674C54.6106 13.4374 54.6675 13.0639 54.6084 12.6997C54.5492 12.3356 54.3769 11.9993 54.116 11.7385L49.1448 6.76684C48.8839 6.50587 48.5475 6.33361 48.1833 6.27445C47.8191 6.21528 47.4455 6.27222 47.1154 6.43719L44.2237 7.88328C41.8818 6.44773 39.3596 5.39996 36.7018 4.75719L35.6832 1.70211C35.5665 1.3521 35.3427 1.04767 35.0434 0.831921C34.7441 0.616175 34.3846 0.500053 34.0156 0.5L30.5 0.5C13.9812 0.5 0.5 13.9824 0.5 30.5C0.5 47.0187 13.9824 60.5 30.5 60.5H34.0156C34.3846 60.4999 34.7441 60.3838 35.0434 60.1681C35.3427 59.9523 35.5665 59.6479 35.6832 59.2979L36.7018 56.2428C39.3596 55.6 41.8818 54.5523 44.2237 53.1167L47.1154 54.5628C47.4454 54.7278 47.8189 54.7847 48.1831 54.7255C48.5472 54.6664 48.8835 54.4941 49.1443 54.2332L54.116 49.2615C54.3769 49.0007 54.5492 48.6644 54.6083 48.3003C54.6675 47.9361 54.6106 47.5626 54.4456 47.2326L52.9986 44.3387C54.4036 42.0269 55.4701 39.4241 56.1233 36.7114L59.2838 35.6884C59.6372 35.5737 59.9453 35.3501 60.1638 35.0496C60.3822 34.7491 60.5 34.3872 60.5 34.0156V26.9844C60.4999 26.6205 60.387 26.2657 60.1768 25.9688C59.9665 25.6718 59.6694 25.4474 59.3263 25.3264ZM4.07562 32.2578H14.7066C14.818 35.9867 15.2803 39.5926 16.0636 42.9219H7.11559C5.35558 39.6238 4.31921 35.9882 4.07562 32.2578ZM7.11559 18.0767H16.0636C15.2798 21.4065 14.8179 25.0133 14.7066 28.7422H4.07562C4.31921 25.0113 5.35557 21.3753 7.11559 18.0767ZM28.7422 4.31633V14.5625H20.7588C22.165 10.6816 24.8334 5.64113 28.7422 4.31633ZM32.2578 21.7727C36.2646 22.6004 39.2891 26.1989 39.2891 30.5C39.2891 34.8011 36.2646 38.3996 32.2578 39.2273V21.7727ZM28.7422 18.0781V28.7422H18.2237C18.3423 24.9752 18.8403 21.3603 19.6808 18.0781H28.7422ZM18.2237 32.2578H28.7422V42.9219H19.6808C18.8403 39.6397 18.3423 36.0248 18.2237 32.2578ZM28.7422 46.4375V56.6837C24.8334 55.3589 22.165 50.3184 20.7588 46.4375H28.7422ZM32.2578 42.7946C38.1671 41.9354 42.8047 36.743 42.8047 30.5C42.8047 24.2607 38.1703 19.0651 32.2578 18.2054V14.6614C40.157 15.5454 46.3203 22.3106 46.3203 30.5C46.3203 38.6894 40.157 45.4547 32.2578 46.3386V42.7946ZM21.6002 5.55594C19.548 8.17812 18.0671 11.4214 17.0445 14.5625H9.36172C12.4498 10.4773 16.6924 7.31246 21.6001 5.55605L21.6002 5.55594ZM9.36172 46.4375H17.0439C18.0665 49.5781 19.5474 52.8219 21.5996 55.4439C16.6925 53.6875 12.45 50.5227 9.36172 46.4375ZM56.9844 32.7371L54.0826 33.677C53.4779 33.8728 53.0261 34.3801 52.9011 35.0035C52.3023 37.9844 51.1327 40.8395 49.5191 43.2593C49.347 43.5171 49.2462 43.8158 49.2269 44.1252C49.2076 44.4346 49.2705 44.7435 49.4093 45.0207L50.7345 47.6716L47.5544 50.8517L44.9036 49.5264C44.6265 49.3877 44.3176 49.3248 44.0083 49.3442C43.699 49.3635 43.4003 49.4643 43.1425 49.6364C40.6546 51.2957 37.9162 52.4338 35.0035 53.0184C34.6999 53.0793 34.4177 53.2193 34.1856 53.4243C33.9534 53.6292 33.7795 53.8919 33.6814 54.1856L32.7486 56.9844H32.2578V49.8721C42.0989 48.9753 49.8359 40.6303 49.8359 30.5C49.8359 20.3697 42.0989 12.0247 32.2578 11.1279V4.01562H32.7486L33.6814 6.81441C33.7794 7.10811 33.9533 7.37071 34.1853 7.57567C34.4174 7.78062 34.6995 7.92065 35.003 7.9816C37.9157 8.56672 40.6541 9.70426 43.1421 11.3636C43.3999 11.5357 43.6986 11.6365 44.008 11.6558C44.3173 11.6751 44.6263 11.6122 44.9035 11.4736L47.5544 10.1483L50.7345 13.3284L49.4088 15.9792C49.2702 16.2564 49.2074 16.5654 49.2267 16.8748C49.246 17.1841 49.3467 17.4829 49.5187 17.7407C51.1781 20.2286 52.3161 22.9666 52.9007 25.8794C52.9606 26.1781 53.0971 26.4561 53.2969 26.6861C53.4966 26.9161 53.7527 27.0902 54.04 27.1913L56.9844 28.2286V32.7371Z" fill="#171717"/>
</svg>
