<svg width="49" height="40" viewBox="0 0 49 40" fill="none" xmlns="http://www.w3.org/2000/svg">
<path d="M30.5 9C29.9696 9 29.4609 8.78929 29.0858 8.41421C28.7107 8.03914 28.5 7.53043 28.5 7V4H20.5V7C20.5 7.53043 20.2893 8.03914 19.9142 8.41421C19.5391 8.78929 19.0304 9 18.5 9C17.9696 9 17.4609 8.78929 17.0858 8.41421C16.7107 8.03914 16.5 7.53043 16.5 7V4C16.5 1.794 18.294 0 20.5 0H28.5C30.706 0 32.5 1.794 32.5 4V7C32.5 7.53043 32.2893 8.03914 31.9142 8.41421C31.5391 8.78929 31.0304 9 30.5 9ZM25.92 26.76C24.9586 27.0904 23.9122 27.0763 22.96 26.72L0.5 19.24V34.5C0.5 37.54 2.96 40 6 40H43C46.04 40 48.5 37.54 48.5 34.5V19.24L25.92 26.76Z" fill="url(#paint0_linear_6918_5860)"/>
<path d="M48.5 11.5V16.08L24.98 23.92C24.82 23.98 24.66 24 24.5 24C24.34 24 24.18 23.98 24.02 23.92L0.5 16.08V11.5C0.5 8.46 2.96 6 6 6H43C46.04 6 48.5 8.46 48.5 11.5Z" fill="url(#paint1_linear_6918_5860)"/>
<defs>
<linearGradient id="paint0_linear_6918_5860" x1="0.5" y1="40" x2="49.996" y2="38.0543" gradientUnits="userSpaceOnUse">
<stop offset="0.00491534" stop-color="#456AEB"/>
<stop offset="1" stop-color="#DF5788"/>
</linearGradient>
<linearGradient id="paint1_linear_6918_5860" x1="0.5" y1="24" x2="49.697" y2="19.7022" gradientUnits="userSpaceOnUse">
<stop offset="0.00491534" stop-color="#456AEB"/>
<stop offset="1" stop-color="#DF5788"/>
</linearGradient>
</defs>
</svg>
