<svg width="45" height="48" viewBox="0 0 45 48" fill="none" xmlns="http://www.w3.org/2000/svg">
<path d="M32.0253 19.0041C32.4241 18.1819 32.9819 17.4469 33.6664 16.8415C34.3509 16.2361 35.1485 15.7723 36.0133 15.477C36.7383 15.2359 37.4981 15.116 38.2621 15.1222V5.21755C38.2621 2.34094 35.9211 0 33.0445 0H5.21755C2.34094 0 0 2.34094 0 5.21755V40.0012C0 42.8779 2.34094 45.2188 5.21755 45.2188H22.5207L22.3329 44.6727C21.958 43.592 21.8014 42.4477 21.8722 41.306C21.9429 40.1644 22.2396 39.0482 22.7451 38.022L32.0253 19.0041ZM6.95674 10.4351H27.827C28.2882 10.4351 28.7306 10.6183 29.0567 10.9445C29.3829 11.2707 29.5661 11.713 29.5661 12.1743C29.5661 12.6356 29.3829 13.0779 29.0567 13.4041C28.7306 13.7302 28.2882 13.9135 27.827 13.9135H6.95674C6.49548 13.9135 6.05311 13.7302 5.72695 13.4041C5.40079 13.0779 5.21755 12.6356 5.21755 12.1743C5.21755 11.713 5.40079 11.2707 5.72695 10.9445C6.05311 10.6183 6.49548 10.4351 6.95674 10.4351ZM6.95674 17.3918H26.0878C26.549 17.3918 26.9914 17.5751 27.3176 17.9012C27.6437 18.2274 27.827 18.6698 27.827 19.131C27.827 19.5923 27.6437 20.0347 27.3176 20.3608C26.9914 20.687 26.549 20.8702 26.0878 20.8702H6.95674C6.49548 20.8702 6.05311 20.687 5.72695 20.3608C5.40079 20.0347 5.21755 19.5923 5.21755 19.131C5.21755 18.6698 5.40079 18.2274 5.72695 17.9012C6.05311 17.5751 6.49548 17.3918 6.95674 17.3918ZM19.131 34.7837H6.95674C6.49548 34.7837 6.05311 34.6005 5.72695 34.2743C5.40079 33.9481 5.21755 33.5058 5.21755 33.0445C5.21755 32.5832 5.40079 32.1409 5.72695 31.8147C6.05311 31.4886 6.49548 31.3053 6.95674 31.3053H19.131C19.5923 31.3053 20.0347 31.4886 20.3608 31.8147C20.687 32.1409 20.8702 32.5832 20.8702 33.0445C20.8702 33.5058 20.687 33.9481 20.3608 34.2743C20.0347 34.6005 19.5923 34.7837 19.131 34.7837ZM6.95674 27.827C6.49548 27.827 6.05311 27.6437 5.72695 27.3176C5.40079 26.9914 5.21755 26.549 5.21755 26.0878C5.21755 25.6265 5.40079 25.1841 5.72695 24.858C6.05311 24.5318 6.49548 24.3486 6.95674 24.3486H22.6094C23.0707 24.3486 23.513 24.5318 23.8392 24.858C24.1653 25.1841 24.3486 25.6265 24.3486 26.0878C24.3486 26.549 24.1653 26.9914 23.8392 27.3176C23.513 27.6437 23.0707 27.827 22.6094 27.827H6.95674ZM44.5301 25.1051L35.2463 44.1301C34.9469 44.7469 34.5282 45.2982 34.0145 45.7522C33.5007 46.2063 32.9021 46.554 32.2532 46.7754L28.9644 47.9058C28.5285 48.0554 28.051 48.0259 27.6369 47.8237C27.2227 47.6215 26.9058 47.2632 26.7556 46.8275L25.6234 43.5387C25.3986 42.8908 25.3046 42.2046 25.347 41.52C25.3894 40.8354 25.5673 40.1661 25.8704 39.5508L35.1541 20.5293C35.5594 19.6945 36.269 19.0684 37.1472 18.7658C37.5786 18.6153 38.0356 18.5522 38.4916 18.5802C38.9475 18.6083 39.3934 18.727 39.803 18.9293L42.93 20.4545C43.7648 20.8615 44.3909 21.5711 44.6936 22.4494C44.9962 23.3277 44.9388 24.2703 44.5301 25.1051Z" fill="url(#paint0_linear_6918_5850)"/>
<defs>
<linearGradient id="paint0_linear_6918_5850" x1="0" y1="48" x2="46.3119" y2="46.5813" gradientUnits="userSpaceOnUse">
<stop offset="0.00491534" stop-color="#456AEB"/>
<stop offset="1" stop-color="#DF5788"/>
</linearGradient>
</defs>
</svg>
