<svg width="54" height="53" viewBox="0 0 54 53" fill="none" xmlns="http://www.w3.org/2000/svg">
<path d="M47.625 0.25H6.375C4.88361 0.251489 3.45374 0.8446 2.39917 1.89917C1.3446 2.95374 0.751489 4.38361 0.75 5.875V47.125C0.751489 48.6164 1.3446 50.0463 2.39917 51.1008C3.45374 52.1554 4.88361 52.7485 6.375 52.75H47.625C49.1164 52.7485 50.5463 52.1554 51.6008 51.1008C52.6554 50.0463 53.2485 48.6164 53.25 47.125V5.875C53.2485 4.38361 52.6554 2.95374 51.6008 1.89917C50.5463 0.8446 49.1164 0.251489 47.625 0.25ZM6.375 4H47.625C48.1221 4.0005 48.5988 4.1982 48.9503 4.54972C49.3018 4.90125 49.4995 5.37787 49.5 5.875V11.5H4.5V5.875C4.5005 5.37787 4.6982 4.90125 5.04972 4.54972C5.40125 4.1982 5.87787 4.0005 6.375 4ZM47.625 49H6.375C5.87787 48.9995 5.40125 48.8018 5.04972 48.4503C4.6982 48.0988 4.5005 47.6221 4.5 47.125V15.25H49.5V47.125C49.4995 47.6221 49.3018 48.0988 48.9503 48.4503C48.5988 48.8018 48.1221 48.9995 47.625 49Z" fill="#171717"/>
<path d="M6.375 5.875H10.125V9.625H6.375V5.875ZM12 5.875H15.75V9.625H12V5.875ZM17.625 5.875H21.375V9.625H17.625V5.875ZM40.125 22.75H17.4788C16.6371 21.5877 15.5316 20.6418 14.2532 19.9899C12.9749 19.338 11.56 18.9987 10.125 19V22.75C11.3134 22.749 12.468 23.1457 13.4048 23.877C14.3416 24.6082 15.0068 25.6319 15.2944 26.785L17.6812 36.3288C17.7825 36.7346 18.0165 37.0949 18.346 37.3524C18.6756 37.6099 19.0818 37.7499 19.5 37.75H36.375C36.7687 37.7501 37.1524 37.6263 37.4718 37.3961C37.7912 37.1659 38.03 36.841 38.1544 36.4675L41.9044 25.2175C41.9983 24.9356 42.0238 24.6355 41.9789 24.3418C41.9341 24.0481 41.82 23.7693 41.6463 23.5283C41.4725 23.2873 41.2439 23.0911 40.9795 22.9558C40.715 22.8205 40.4221 22.7499 40.125 22.75ZM35.025 34H20.9625L19.0875 26.5H37.5244L35.025 34Z" fill="#171717"/>
<path d="M22.3125 45.25C23.8658 45.25 25.125 43.9908 25.125 42.4375C25.125 40.8842 23.8658 39.625 22.3125 39.625C20.7592 39.625 19.5 40.8842 19.5 42.4375C19.5 43.9908 20.7592 45.25 22.3125 45.25Z" fill="#171717"/>
<path d="M33.5625 45.25C35.1158 45.25 36.375 43.9908 36.375 42.4375C36.375 40.8842 35.1158 39.625 33.5625 39.625C32.0092 39.625 30.75 40.8842 30.75 42.4375C30.75 43.9908 32.0092 45.25 33.5625 45.25Z" fill="#171717"/>
</svg>
