<svg width="49" height="48" viewBox="0 0 49 48" fill="none" xmlns="http://www.w3.org/2000/svg">
<path d="M14.0394 18.9738H21.7317V47.9995H14.0394V18.9738ZM27.2701 25.1277H34.9624V47.9995H27.2701V25.1277ZM40.5009 14.2559H48.1932V47.9995H40.5009V14.2559ZM0.808594 29.9482H8.5009V47.9995H0.808594V29.9482Z" fill="url(#paint0_linear_6918_5840)"/>
<path d="M44.0806 0C41.9296 0 40.186 1.74246 40.186 3.8919C40.186 4.39497 40.2825 4.87528 40.4565 5.31662L32.9505 11.7108C32.3818 11.403 31.7452 11.2423 31.0985 11.2433C29.9854 11.2433 28.9821 11.7107 28.2724 12.4589L21.7928 9.80513C21.7933 9.78 21.7947 9.75508 21.7947 9.72974C21.7947 7.58031 20.051 5.83785 17.9001 5.83785C15.7491 5.83785 14.0055 7.58031 14.0055 9.72974C14.0055 9.94728 14.0242 10.1603 14.0585 10.3681L7.32672 14.3483C6.64084 13.8066 5.7921 13.5125 4.9181 13.5135C2.76713 13.5135 1.02344 15.256 1.02344 17.4054C1.02344 19.5549 2.76713 21.2973 4.9181 21.2973C7.06908 21.2973 8.81267 19.5549 8.81267 17.4054C8.81249 17.1916 8.79475 16.9781 8.75964 16.7671L15.4914 12.7869C16.1773 13.3286 17.0261 13.6227 17.9002 13.6216C19.0133 13.6216 20.0166 13.1543 20.7263 12.4061L27.2059 15.0598C27.2054 15.0849 27.204 15.1098 27.204 15.1351C27.204 17.2845 28.9476 19.027 31.0986 19.027C33.2496 19.027 34.9932 17.2845 34.9932 15.1351C34.9932 14.6847 34.9157 14.2526 34.7749 13.8503L42.3637 7.38544C42.8979 7.64816 43.4854 7.78446 44.0807 7.7838C46.2316 7.7838 47.9753 6.04133 47.9753 3.8919C47.9753 1.74246 46.2315 0 44.0806 0Z" fill="url(#paint1_linear_6918_5840)"/>
<defs>
<linearGradient id="paint0_linear_6918_5840" x1="0.808594" y1="47.9995" x2="49.6422" y2="45.753" gradientUnits="userSpaceOnUse">
<stop offset="0.00491534" stop-color="#456AEB"/>
<stop offset="1" stop-color="#DF5788"/>
</linearGradient>
<linearGradient id="paint1_linear_6918_5840" x1="1.02344" y1="21.2973" x2="49.2618" y2="17.8135" gradientUnits="userSpaceOnUse">
<stop offset="0.00491534" stop-color="#456AEB"/>
<stop offset="1" stop-color="#DF5788"/>
</linearGradient>
</defs>
</svg>
