<svg width="48" height="48" viewBox="0 0 48 48" fill="none" xmlns="http://www.w3.org/2000/svg">
<path d="M30 39H18C17.6022 39 17.2206 39.158 16.9393 39.4393C16.658 39.7206 16.5 40.1022 16.5 40.5V43.5C16.5 45.981 18.519 48 21 48H27C29.481 48 31.5 45.981 31.5 43.5V40.5C31.5 40.1022 31.342 39.7206 31.0607 39.4393C30.7794 39.158 30.3978 39 30 39Z" fill="url(#paint0_linear_6918_5827)"/>
<path d="M23.9981 23.127C26.8297 23.127 29.1251 20.8316 29.1251 18C29.1251 15.1685 26.8297 12.873 23.9981 12.873C21.1665 12.873 18.8711 15.1685 18.8711 18C18.8711 20.8316 21.1665 23.127 23.9981 23.127Z" fill="url(#paint1_linear_6918_5827)"/>
<path d="M41.835 15.51C40.77 7.515 34.155 1.05 26.13 0.120001C20.985 -0.479999 15.84 1.155 12.015 4.56C10.1234 6.25104 8.60985 8.32221 7.57336 10.6382C6.53687 12.9541 6.00074 15.4627 6 18C6 24.75 9.72 30.87 15.705 33.975C16.185 34.23 16.5 34.74 16.5 35.295V36.27C16.965 36.09 17.475 36 18 36H30C30.525 36 31.035 36.09 31.5 36.27V35.295C31.5 34.74 31.8 34.23 32.295 33.975C39.12 30.435 42.855 23.19 41.835 15.51ZM33 19.5H31.983C31.7763 20.6058 31.341 21.6562 30.705 22.584L31.425 23.304C31.5682 23.4425 31.6823 23.6081 31.7608 23.7911C31.8393 23.9742 31.8805 24.171 31.8821 24.3702C31.8837 24.5694 31.8456 24.7669 31.7701 24.9512C31.6945 25.1355 31.583 25.3029 31.4421 25.4436C31.3011 25.5843 31.1336 25.6956 30.9492 25.7709C30.7648 25.8462 30.5672 25.884 30.3681 25.8821C30.1689 25.8802 29.9721 25.8387 29.7892 25.76C29.6062 25.6812 29.4408 25.5669 29.3025 25.4235L28.5825 24.7035C27.6552 25.3399 26.6053 25.7757 25.5 25.983V27C25.5 27.3978 25.342 27.7794 25.0607 28.0607C24.7794 28.342 24.3978 28.5 24 28.5C23.6022 28.5 23.2206 28.342 22.9393 28.0607C22.658 27.7794 22.5 27.3978 22.5 27V25.983C21.3943 25.7763 20.3438 25.341 19.416 24.705L18.696 25.425C18.557 25.5646 18.3919 25.6753 18.21 25.7508C18.0282 25.8264 17.8332 25.8653 17.6362 25.8653C17.4393 25.8653 17.2443 25.8264 17.0625 25.7508C16.8806 25.6753 16.7155 25.5646 16.5765 25.425C16.437 25.2857 16.3264 25.1203 16.2509 24.9382C16.1754 24.7561 16.1366 24.5609 16.1366 24.3638C16.1366 24.1666 16.1754 23.9714 16.2509 23.7893C16.3264 23.6072 16.437 23.4418 16.5765 23.3025L17.2965 22.5825C16.6596 21.6554 16.2233 20.6055 16.0155 19.5H15C14.6022 19.5 14.2206 19.342 13.9393 19.0607C13.658 18.7794 13.5 18.3978 13.5 18C13.5 17.6022 13.658 17.2206 13.9393 16.9393C14.2206 16.658 14.6022 16.5 15 16.5H16.017C16.2285 15.375 16.6695 14.328 17.295 13.416L16.575 12.696C16.4318 12.5575 16.3177 12.3919 16.2392 12.2089C16.1607 12.0258 16.1195 11.829 16.1179 11.6298C16.1163 11.4306 16.1544 11.2331 16.2299 11.0488C16.3055 10.8645 16.417 10.6971 16.5579 10.5564C16.6989 10.4157 16.8664 10.3044 17.0508 10.2291C17.2352 10.1538 17.4328 10.116 17.6319 10.1179C17.8311 10.1198 18.0279 10.1613 18.2108 10.24C18.3938 10.3188 18.5592 10.4331 18.6975 10.5765L19.4175 11.2965C20.3446 10.6596 21.3945 10.2233 22.5 10.0155V9C22.5 8.60218 22.658 8.22065 22.9393 7.93934C23.2206 7.65804 23.6022 7.5 24 7.5C24.3978 7.5 24.7794 7.65804 25.0607 7.93934C25.342 8.22065 25.5 8.60218 25.5 9V10.017C26.6265 10.2285 27.672 10.6695 28.584 11.295L29.304 10.575C29.4425 10.4318 29.6081 10.3177 29.7911 10.2392C29.9742 10.1607 30.171 10.1195 30.3702 10.1179C30.5694 10.1163 30.7669 10.1544 30.9512 10.23C31.1355 10.3055 31.3029 10.417 31.4436 10.5579C31.5843 10.6989 31.6956 10.8664 31.7709 11.0508C31.8462 11.2352 31.884 11.4328 31.8821 11.6319C31.8802 11.8311 31.8387 12.0279 31.76 12.2108C31.6812 12.3938 31.5669 12.5592 31.4235 12.6975L30.705 13.4175C31.3305 14.328 31.77 15.3735 31.983 16.5H33C33.3978 16.5 33.7794 16.658 34.0607 16.9393C34.342 17.2206 34.5 17.6022 34.5 18C34.5 18.3978 34.342 18.7794 34.0607 19.0607C33.7794 19.342 33.3978 19.5 33 19.5ZM3 19.5H1.5C1.10218 19.5 0.720644 19.342 0.43934 19.0607C0.158035 18.7794 0 18.3978 0 18C0 17.6022 0.158035 17.2206 0.43934 16.9393C0.720644 16.658 1.10218 16.5 1.5 16.5H3C3.39782 16.5 3.77936 16.658 4.06066 16.9393C4.34196 17.2206 4.5 17.6022 4.5 18C4.5 18.3978 4.34196 18.7794 4.06066 19.0607C3.77936 19.342 3.39782 19.5 3 19.5ZM9.15 4.65C8.95335 4.6502 8.7586 4.61162 8.57688 4.53646C8.39516 4.46131 8.23005 4.35105 8.091 4.212L7.0305 3.15C6.88171 3.01306 6.76215 2.84745 6.679 2.66312C6.59585 2.4788 6.55083 2.27956 6.54664 2.07739C6.54245 1.87522 6.57918 1.67429 6.65463 1.48668C6.73007 1.29907 6.84267 1.12865 6.98566 0.98566C7.12865 0.842674 7.29907 0.730074 7.48668 0.65463C7.67429 0.579185 7.87522 0.542453 8.07739 0.546642C8.27956 0.55083 8.4788 0.595853 8.66312 0.679003C8.84745 0.762154 9.01306 0.881715 9.15 1.0305L10.2105 2.091C10.4197 2.30086 10.5621 2.56797 10.6196 2.85865C10.6772 3.14932 10.6473 3.45053 10.5339 3.72427C10.4205 3.99801 10.2285 4.23202 9.98218 4.39677C9.73589 4.56153 9.44632 4.64964 9.15 4.65ZM8.091 35.409C7.79437 35.4089 7.50443 35.3209 7.25781 35.1561C7.0112 34.9913 6.81899 34.757 6.70548 34.483C6.59198 34.2089 6.56227 33.9074 6.62012 33.6165C6.67798 33.3255 6.82079 33.0583 7.0305 32.8485L8.091 31.788C8.22937 31.6447 8.39489 31.5305 8.57789 31.4519C8.7609 31.3732 8.95773 31.3319 9.1569 31.3301C9.35607 31.3284 9.55359 31.3663 9.73793 31.4418C9.92228 31.5172 10.0898 31.6286 10.2306 31.7694C10.3714 31.9102 10.4828 32.0777 10.5582 32.2621C10.6337 32.4464 10.6716 32.6439 10.6699 32.8431C10.6681 33.0423 10.6268 33.2391 10.5482 33.4221C10.4695 33.6051 10.3553 33.7706 10.212 33.909L9.1515 34.9695C9.01239 35.109 8.84709 35.2196 8.6651 35.2951C8.48311 35.3705 8.288 35.4092 8.091 35.409ZM46.5 19.5H45C44.6022 19.5 44.2206 19.342 43.9393 19.0607C43.658 18.7794 43.5 18.3978 43.5 18C43.5 17.6022 43.658 17.2206 43.9393 16.9393C44.2206 16.658 44.6022 16.5 45 16.5H46.5C46.8978 16.5 47.2794 16.658 47.5607 16.9393C47.842 17.2206 48 17.6022 48 18C48 18.3978 47.842 18.7794 47.5607 19.0607C47.2794 19.342 46.8978 19.5 46.5 19.5ZM38.85 4.65C38.5534 4.64994 38.2634 4.56193 38.0168 4.3971C37.7702 4.23228 37.578 3.99803 37.4645 3.72398C37.351 3.44993 37.3213 3.14838 37.3791 2.85745C37.437 2.56652 37.5798 2.29928 37.7895 2.0895L38.8485 1.0305C38.9868 0.887141 39.1522 0.772754 39.3352 0.694014C39.5181 0.615274 39.7149 0.573757 39.9141 0.571887C40.1132 0.570017 40.3108 0.607831 40.4952 0.683121C40.6796 0.758412 40.8471 0.869673 40.9881 1.01041C41.129 1.15115 41.2405 1.31855 41.316 1.50284C41.3916 1.68712 41.4297 1.88462 41.4281 2.08378C41.4265 2.28295 41.3853 2.47981 41.3068 2.66287C41.2283 2.84593 41.1142 3.01153 40.971 3.15L39.9105 4.2105C39.7714 4.35 39.6061 4.46064 39.4241 4.53606C39.2421 4.61148 39.047 4.6502 38.85 4.65ZM39.909 35.409C39.712 35.4092 39.5169 35.3705 39.3349 35.2951C39.1529 35.2196 38.9876 35.109 38.8485 34.9695L37.788 33.909C37.6487 33.7696 37.5383 33.6042 37.4629 33.4222C37.3876 33.2401 37.3489 33.045 37.3489 32.848C37.349 32.6509 37.3879 32.4559 37.4634 32.2739C37.5388 32.0919 37.6494 31.9265 37.7887 31.7873C37.9281 31.648 38.0935 31.5375 38.2756 31.4622C38.4576 31.3869 38.6528 31.3481 38.8498 31.3482C39.0468 31.3483 39.2419 31.3871 39.4239 31.4626C39.6059 31.5381 39.7712 31.6486 39.9105 31.788L40.971 32.8485C41.1807 33.0583 41.3235 33.3255 41.3814 33.6165C41.4392 33.9074 41.4095 34.2089 41.296 34.483C41.1825 34.757 40.9903 34.9913 40.7437 35.1561C40.4971 35.3209 40.2056 35.4089 39.909 35.409Z" fill="url(#paint2_linear_6918_5827)"/>
<defs>
<linearGradient id="paint0_linear_6918_5827" x1="16.5" y1="48" x2="31.9453" y2="47.1567" gradientUnits="userSpaceOnUse">
<stop offset="0.00491534" stop-color="#456AEB"/>
<stop offset="1" stop-color="#DF5788"/>
</linearGradient>
<linearGradient id="paint1_linear_6918_5827" x1="18.8711" y1="23.127" x2="29.4497" y2="22.7805" gradientUnits="userSpaceOnUse">
<stop offset="0.00491534" stop-color="#456AEB"/>
<stop offset="1" stop-color="#DF5788"/>
</linearGradient>
<linearGradient id="paint2_linear_6918_5827" x1="0" y1="36.27" x2="49.4795" y2="34.125" gradientUnits="userSpaceOnUse">
<stop offset="0.00491534" stop-color="#456AEB"/>
<stop offset="1" stop-color="#DF5788"/>
</linearGradient>
</defs>
</svg>
