<svg width="54" height="55" viewBox="0 0 54 55" fill="none" xmlns="http://www.w3.org/2000/svg">
<path d="M44.5 24.375H39.5C33.45 24.375 30.125 21.05 30.125 15V10C30.125 3.95 33.45 0.625 39.5 0.625H44.5C50.55 0.625 53.875 3.95 53.875 10V15C53.875 21.05 50.55 24.375 44.5 24.375ZM39.5 4.375C35.55 4.375 33.875 6.05 33.875 10V15C33.875 18.95 35.55 20.625 39.5 20.625H44.5C48.45 20.625 50.125 18.95 50.125 15V10C50.125 6.05 48.45 4.375 44.5 4.375H39.5ZM14.5 54.375H9.5C3.45 54.375 0.125 51.05 0.125 45V40C0.125 33.95 3.45 30.625 9.5 30.625H14.5C20.55 30.625 23.875 33.95 23.875 40V45C23.875 51.05 20.55 54.375 14.5 54.375ZM9.5 34.375C5.55 34.375 3.875 36.05 3.875 40V45C3.875 48.95 5.55 50.625 9.5 50.625H14.5C18.45 50.625 20.125 48.95 20.125 45V40C20.125 36.05 18.45 34.375 14.5 34.375H9.5ZM12 24.375C5.45 24.375 0.125 19.05 0.125 12.5C0.125 5.95 5.45 0.625 12 0.625C18.55 0.625 23.875 5.95 23.875 12.5C23.875 19.05 18.55 24.375 12 24.375ZM12 4.375C7.525 4.375 3.875 8.025 3.875 12.5C3.875 16.975 7.525 20.625 12 20.625C16.475 20.625 20.125 16.975 20.125 12.5C20.125 8.025 16.475 4.375 12 4.375ZM42 54.375C35.45 54.375 30.125 49.05 30.125 42.5C30.125 35.95 35.45 30.625 42 30.625C48.55 30.625 53.875 35.95 53.875 42.5C53.875 49.05 48.55 54.375 42 54.375ZM42 34.375C37.525 34.375 33.875 38.025 33.875 42.5C33.875 46.975 37.525 50.625 42 50.625C46.475 50.625 50.125 46.975 50.125 42.5C50.125 38.025 46.475 34.375 42 34.375Z" fill="#171717"/>
</svg>
