<svg width="61" height="57" viewBox="0 0 61 57" fill="none" xmlns="http://www.w3.org/2000/svg">
<path d="M9.875 11.625C10.3723 11.625 10.8492 11.4275 11.2008 11.0758C11.5525 10.7242 11.75 10.2473 11.75 9.75C11.75 9.25272 11.5525 8.77581 11.2008 8.42418C10.8492 8.07254 10.3723 7.875 9.875 7.875C9.37772 7.875 8.90081 8.07254 8.54918 8.42418C8.19754 8.77581 8 9.25272 8 9.75C8 10.2473 8.19754 10.7242 8.54918 11.0758C8.90081 11.4275 9.37772 11.625 9.875 11.625ZM17.375 9.75C17.375 10.2473 17.1775 10.7242 16.8258 11.0758C16.4742 11.4275 15.9973 11.625 15.5 11.625C15.0027 11.625 14.5258 11.4275 14.1742 11.0758C13.8225 10.7242 13.625 10.2473 13.625 9.75C13.625 9.25272 13.8225 8.77581 14.1742 8.42418C14.5258 8.07254 15.0027 7.875 15.5 7.875C15.9973 7.875 16.4742 8.07254 16.8258 8.42418C17.1775 8.77581 17.375 9.25272 17.375 9.75ZM21.125 11.625C21.6223 11.625 22.0992 11.4275 22.4508 11.0758C22.8025 10.7242 23 10.2473 23 9.75C23 9.25272 22.8025 8.77581 22.4508 8.42418C22.0992 8.07254 21.6223 7.875 21.125 7.875C20.6277 7.875 20.1508 8.07254 19.7992 8.42418C19.4475 8.77581 19.25 9.25272 19.25 9.75C19.25 10.2473 19.4475 10.7242 19.7992 11.0758C20.1508 11.4275 20.6277 11.625 21.125 11.625ZM17.375 24.75C17.8723 24.75 18.3492 24.9475 18.7008 25.2992C19.0525 25.6508 19.25 26.1277 19.25 26.625V37.875C19.25 39.3668 19.8426 40.7976 20.8975 41.8525C21.9524 42.9074 23.3832 43.5 24.875 43.5C26.3668 43.5 27.7976 42.9074 28.8525 41.8525C29.9074 40.7976 30.5 39.3668 30.5 37.875V26.625C30.5 26.1277 30.6975 25.6508 31.0492 25.2992C31.4008 24.9475 31.8777 24.75 32.375 24.75C32.8723 24.75 33.3492 24.9475 33.7008 25.2992C34.0525 25.6508 34.25 26.1277 34.25 26.625V37.875C34.25 40.3614 33.2623 42.746 31.5041 44.5041C29.746 46.2623 27.3614 47.25 24.875 47.25C22.3886 47.25 20.004 46.2623 18.2459 44.5041C16.4877 42.746 15.5 40.3614 15.5 37.875V26.625C15.5 26.1277 15.6975 25.6508 16.0492 25.2992C16.4008 24.9475 16.8777 24.75 17.375 24.75ZM45.5 26.625C45.5 27.1223 45.3025 27.5992 44.9508 27.9508C44.5992 28.3025 44.1223 28.5 43.625 28.5V43.5C44.1223 43.5 44.5992 43.6975 44.9508 44.0492C45.3025 44.4008 45.5 44.8777 45.5 45.375C45.5 45.8723 45.3025 46.3492 44.9508 46.7008C44.5992 47.0525 44.1223 47.25 43.625 47.25H39.875C39.3777 47.25 38.9008 47.0525 38.5492 46.7008C38.1975 46.3492 38 45.8723 38 45.375C38 44.8777 38.1975 44.4008 38.5492 44.0492C38.9008 43.6975 39.3777 43.5 39.875 43.5V28.5C39.3777 28.5 38.9008 28.3025 38.5492 27.9508C38.1975 27.5992 38 27.1223 38 26.625C38 26.1277 38.1975 25.6508 38.5492 25.2992C38.9008 24.9475 39.3777 24.75 39.875 24.75H43.625C44.1223 24.75 44.5992 24.9475 44.9508 25.2992C45.3025 25.6508 45.5 26.1277 45.5 26.625Z" fill="#171717"/>
<path fill-rule="evenodd" clip-rule="evenodd" d="M0.5 6C0.5 4.50816 1.09263 3.07742 2.14752 2.02252C3.20242 0.967632 4.63316 0.375 6.125 0.375H54.875C56.3668 0.375 57.7976 0.967632 58.8525 2.02252C59.9074 3.07742 60.5 4.50816 60.5 6V51C60.5 52.4918 59.9074 53.9226 58.8525 54.9775C57.7976 56.0324 56.3668 56.625 54.875 56.625H6.125C4.63316 56.625 3.20242 56.0324 2.14752 54.9775C1.09263 53.9226 0.5 52.4918 0.5 51L0.5 6ZM56.75 6V15.375H4.25V6C4.25 5.50272 4.44754 5.02581 4.79917 4.67417C5.15081 4.32254 5.62772 4.125 6.125 4.125H54.875C55.3723 4.125 55.8492 4.32254 56.2008 4.67417C56.5525 5.02581 56.75 5.50272 56.75 6ZM56.75 19.125H4.25V51C4.25 51.4973 4.44754 51.9742 4.79917 52.3258C5.15081 52.6775 5.62772 52.875 6.125 52.875H54.875C55.3723 52.875 55.8492 52.6775 56.2008 52.3258C56.5525 51.9742 56.75 51.4973 56.75 51V19.125Z" fill="#171717"/>
</svg>
