<svg width="48" height="48" viewBox="0 0 48 48" fill="none" xmlns="http://www.w3.org/2000/svg">
<path d="M48 11.3438V4.3125C48 1.98628 46.1075 0.09375 43.7812 0.09375H4.21875C1.89253 0.09375 0 1.98628 0 4.3125V11.3438H48ZM32.4375 5.71875H40.875C41.6516 5.71875 42.2812 6.34837 42.2812 7.125C42.2812 7.90163 41.6516 8.53125 40.875 8.53125H32.4375C31.6609 8.53125 31.0312 7.90163 31.0312 7.125C31.0312 6.34837 31.6609 5.71875 32.4375 5.71875ZM18.375 5.71875C19.1516 5.71875 19.7812 6.34837 19.7812 7.125C19.7812 7.90163 19.1516 8.53125 18.375 8.53125C17.5984 8.53125 16.9688 7.90163 16.9688 7.125C16.9688 6.34837 17.5984 5.71875 18.375 5.71875ZM12.75 5.71875C13.5266 5.71875 14.1562 6.34837 14.1562 7.125C14.1562 7.90163 13.5266 8.53125 12.75 8.53125C11.9734 8.53125 11.3438 7.90163 11.3438 7.125C11.3438 6.34837 11.9734 5.71875 12.75 5.71875ZM7.125 5.71875C7.90163 5.71875 8.53125 6.34837 8.53125 7.125C8.53125 7.90163 7.90163 8.53125 7.125 8.53125C6.34837 8.53125 5.71875 7.90163 5.71875 7.125C5.71875 6.34837 6.34837 5.71875 7.125 5.71875ZM0 14.1562V43.6875C0 46.0137 1.89253 47.9062 4.21875 47.9062H43.7812C46.1075 47.9062 48 46.0137 48 43.6875V14.1562H0ZM16.4409 34.1519C17.0475 34.6371 17.1458 35.522 16.6606 36.1284C16.1755 36.7348 15.2904 36.8333 14.6841 36.348L7.65281 30.723C6.94978 30.1608 6.94931 29.0895 7.65281 28.5268L14.6841 22.9018C15.2903 22.4167 16.1753 22.5149 16.6606 23.1214C17.1458 23.7278 17.0475 24.6128 16.4409 25.0979L10.7824 29.625L16.4409 34.1519ZM29.5113 20.3352L21.0738 40.0227C20.7679 40.7364 19.9414 41.0674 19.2273 40.7613C18.5135 40.4554 18.1827 39.6286 18.4887 38.9148L26.9262 19.2273C27.2322 18.5135 28.0589 18.1828 28.7727 18.4887C29.4865 18.7946 29.8173 19.6213 29.5113 20.3352ZM40.3472 30.7231L33.3159 36.3481C32.7105 36.8326 31.8253 36.7358 31.3394 36.1285C30.8542 35.5221 30.9525 34.6371 31.5591 34.152L37.2176 29.625L31.5591 25.0981C30.9525 24.6129 30.8542 23.728 31.3394 23.1216C31.8245 22.5151 32.7095 22.4167 33.3159 22.902L40.3472 28.527C41.0502 29.0892 41.0507 30.1604 40.3472 30.7231Z" fill="white"/>
</svg>
