<svg width="49" height="49" viewBox="0 0 49 49" fill="none" xmlns="http://www.w3.org/2000/svg">
<path d="M30.6665 39.5H18.6665C18.2687 39.5 17.8871 39.658 17.6058 39.9393C17.3245 40.2206 17.1665 40.6022 17.1665 41V44C17.1665 46.481 19.1855 48.5 21.6665 48.5H27.6665C30.1475 48.5 32.1665 46.481 32.1665 44V41C32.1665 40.6022 32.0085 40.2206 31.7272 39.9393C31.4459 39.658 31.0643 39.5 30.6665 39.5Z" fill="#3C60DC"/>
<path d="M24.6666 23.627C27.4981 23.627 29.7935 21.3316 29.7935 18.5C29.7935 15.6685 27.4981 13.373 24.6666 13.373C21.835 13.373 19.5396 15.6685 19.5396 18.5C19.5396 21.3316 21.835 23.627 24.6666 23.627Z" fill="#3C60DC"/>
<path d="M42.5015 16.01C41.4365 8.015 34.8215 1.55 26.7965 0.620001C21.6515 0.0200011 16.5065 1.655 12.6815 5.06C10.7899 6.75104 9.27635 8.82221 8.23986 11.1382C7.20338 13.4541 6.66724 15.9627 6.6665 18.5C6.6665 25.25 10.3865 31.37 16.3715 34.475C16.8515 34.73 17.1665 35.24 17.1665 35.795V36.77C17.6315 36.59 18.1415 36.5 18.6665 36.5H30.6665C31.1915 36.5 31.7015 36.59 32.1665 36.77V35.795C32.1665 35.24 32.4665 34.73 32.9615 34.475C39.7865 30.935 43.5215 23.69 42.5015 16.01ZM33.6665 20H32.6495C32.4428 21.1058 32.0075 22.1562 31.3715 23.084L32.0915 23.804C32.2347 23.9425 32.3488 24.1081 32.4273 24.2911C32.5058 24.4742 32.547 24.671 32.5486 24.8702C32.5502 25.0694 32.5121 25.2669 32.4366 25.4512C32.361 25.6355 32.2495 25.8029 32.1086 25.9436C31.9676 26.0843 31.8001 26.1956 31.6157 26.2709C31.4313 26.3462 31.2337 26.384 31.0346 26.3821C30.8354 26.3802 30.6386 26.3387 30.4557 26.26C30.2727 26.1812 30.1073 26.0669 29.969 25.9235L29.249 25.2035C28.3217 25.8399 27.2718 26.2757 26.1665 26.483V27.5C26.1665 27.8978 26.0085 28.2794 25.7272 28.5607C25.4459 28.842 25.0643 29 24.6665 29C24.2687 29 23.8871 28.842 23.6058 28.5607C23.3245 28.2794 23.1665 27.8978 23.1665 27.5V26.483C22.0608 26.2763 21.0103 25.841 20.0825 25.205L19.3625 25.925C19.2236 26.0646 19.0584 26.1753 18.8765 26.2508C18.6947 26.3264 18.4997 26.3653 18.3028 26.3653C18.1058 26.3653 17.9108 26.3264 17.729 26.2508C17.5471 26.1753 17.382 26.0646 17.243 25.925C17.1035 25.7857 16.9929 25.6203 16.9174 25.4382C16.8419 25.2561 16.8031 25.0609 16.8031 24.8638C16.8031 24.6666 16.8419 24.4714 16.9174 24.2893C16.9929 24.1072 17.1035 23.9418 17.243 23.8025L17.963 23.0825C17.3261 22.1554 16.8898 21.1055 16.682 20H15.6665C15.2687 20 14.8871 19.842 14.6058 19.5607C14.3245 19.2794 14.1665 18.8978 14.1665 18.5C14.1665 18.1022 14.3245 17.7206 14.6058 17.4393C14.8871 17.158 15.2687 17 15.6665 17H16.6835C16.895 15.875 17.336 14.828 17.9615 13.916L17.2415 13.196C17.0983 13.0575 16.9842 12.8919 16.9057 12.7089C16.8272 12.5258 16.786 12.329 16.7844 12.1298C16.7828 11.9306 16.8209 11.7331 16.8965 11.5488C16.972 11.3645 17.0835 11.1971 17.2244 11.0564C17.3654 10.9157 17.5329 10.8044 17.7173 10.7291C17.9017 10.6538 18.0993 10.616 18.2984 10.6179C18.4976 10.6198 18.6944 10.6613 18.8773 10.74C19.0603 10.8188 19.2257 10.9331 19.364 11.0765L20.084 11.7965C21.0111 11.1596 22.061 10.7233 23.1665 10.5155V9.5C23.1665 9.10218 23.3245 8.72065 23.6058 8.43934C23.8871 8.15804 24.2687 8 24.6665 8C25.0643 8 25.4459 8.15804 25.7272 8.43934C26.0085 8.72065 26.1665 9.10218 26.1665 9.5V10.517C27.293 10.7285 28.3385 11.1695 29.2505 11.795L29.9705 11.075C30.109 10.9318 30.2746 10.8177 30.4576 10.7392C30.6407 10.6607 30.8376 10.6195 31.0367 10.6179C31.2359 10.6163 31.4334 10.6544 31.6177 10.73C31.802 10.8055 31.9694 10.917 32.1101 11.0579C32.2508 11.1989 32.3621 11.3664 32.4374 11.5508C32.5127 11.7352 32.5505 11.9328 32.5486 12.1319C32.5467 12.3311 32.5052 12.5279 32.4265 12.7108C32.3477 12.8938 32.2334 13.0592 32.09 13.1975L31.3715 13.9175C31.997 14.828 32.4365 15.8735 32.6495 17H33.6665C34.0643 17 34.4459 17.158 34.7272 17.4393C35.0085 17.7206 35.1665 18.1022 35.1665 18.5C35.1665 18.8978 35.0085 19.2794 34.7272 19.5607C34.4459 19.842 34.0643 20 33.6665 20ZM3.6665 20H2.1665C1.76868 20 1.38715 19.842 1.10584 19.5607C0.824539 19.2794 0.666504 18.8978 0.666504 18.5C0.666504 18.1022 0.824539 17.7206 1.10584 17.4393C1.38715 17.158 1.76868 17 2.1665 17H3.6665C4.06433 17 4.44586 17.158 4.72716 17.4393C5.00847 17.7206 5.1665 18.1022 5.1665 18.5C5.1665 18.8978 5.00847 19.2794 4.72716 19.5607C4.44586 19.842 4.06433 20 3.6665 20ZM9.8165 5.15C9.61986 5.1502 9.4251 5.11162 9.24338 5.03646C9.06167 4.96131 8.89656 4.85105 8.7575 4.712L7.697 3.65C7.54822 3.51306 7.42866 3.34745 7.34551 3.16312C7.26236 2.9788 7.21733 2.77956 7.21314 2.57739C7.20896 2.37522 7.24569 2.17429 7.32113 1.98668C7.39658 1.79907 7.50918 1.62865 7.65216 1.48566C7.79515 1.34267 7.96557 1.23007 8.15318 1.15463C8.34079 1.07919 8.54172 1.04245 8.74389 1.04664C8.94606 1.05083 9.1453 1.09585 9.32963 1.179C9.51395 1.26215 9.67956 1.38172 9.8165 1.5305L10.877 2.591C11.0862 2.80086 11.2286 3.06797 11.2861 3.35865C11.3437 3.64932 11.3138 3.95053 11.2004 4.22427C11.087 4.49801 10.895 4.73202 10.6487 4.89677C10.4024 5.06153 10.1128 5.14964 9.8165 5.15ZM8.7575 35.909C8.46088 35.9089 8.17093 35.8209 7.92432 35.6561C7.6777 35.4913 7.48549 35.257 7.37199 34.983C7.25848 34.7089 7.22878 34.4074 7.28663 34.1165C7.34448 33.8255 7.48729 33.5583 7.697 33.3485L8.7575 32.288C8.89587 32.1447 9.06139 32.0305 9.2444 31.9519C9.4274 31.8732 9.62423 31.8319 9.8234 31.8301C10.0226 31.8284 10.2201 31.8663 10.4044 31.9418C10.5888 32.0172 10.7563 32.1286 10.8971 32.2694C11.0379 32.4102 11.1493 32.5777 11.2247 32.7621C11.3002 32.9464 11.3381 33.1439 11.3364 33.3431C11.3346 33.5423 11.2933 33.7391 11.2147 33.9221C11.136 34.1051 11.0218 34.2706 10.8785 34.409L9.818 35.4695C9.6789 35.609 9.5136 35.7196 9.3316 35.7951C9.14961 35.8705 8.95451 35.9092 8.7575 35.909ZM47.1665 20H45.6665C45.2687 20 44.8871 19.842 44.6058 19.5607C44.3245 19.2794 44.1665 18.8978 44.1665 18.5C44.1665 18.1022 44.3245 17.7206 44.6058 17.4393C44.8871 17.158 45.2687 17 45.6665 17H47.1665C47.5643 17 47.9459 17.158 48.2272 17.4393C48.5085 17.7206 48.6665 18.1022 48.6665 18.5C48.6665 18.8978 48.5085 19.2794 48.2272 19.5607C47.9459 19.842 47.5643 20 47.1665 20ZM39.5165 5.15C39.2199 5.14994 38.9299 5.06193 38.6833 4.8971C38.4367 4.73228 38.2445 4.49803 38.131 4.22398C38.0175 3.94993 37.9878 3.64838 38.0456 3.35745C38.1035 3.06652 38.2463 2.79928 38.456 2.5895L39.515 1.5305C39.6533 1.38714 39.8187 1.27275 40.0017 1.19401C40.1846 1.11527 40.3814 1.07376 40.5806 1.07189C40.7797 1.07002 40.9773 1.10783 41.1617 1.18312C41.3461 1.25841 41.5136 1.36967 41.6546 1.51041C41.7955 1.65115 41.907 1.81855 41.9826 2.00284C42.0581 2.18712 42.0962 2.38462 42.0946 2.58378C42.093 2.78295 42.0518 2.97981 41.9733 3.16287C41.8948 3.34593 41.7807 3.51153 41.6375 3.65L40.577 4.7105C40.4379 4.85 40.2726 4.96064 40.0906 5.03606C39.9086 5.11148 39.7135 5.1502 39.5165 5.15ZM40.5755 35.909C40.3785 35.9092 40.1834 35.8705 40.0014 35.7951C39.8194 35.7196 39.6541 35.609 39.515 35.4695L38.4545 34.409C38.3152 34.2696 38.2048 34.1042 38.1295 33.9222C38.0541 33.7401 38.0154 33.545 38.0154 33.348C38.0155 33.1509 38.0544 32.9559 38.1299 32.7739C38.2053 32.5919 38.3159 32.4265 38.4553 32.2873C38.5946 32.148 38.76 32.0375 38.9421 31.9622C39.1242 31.8869 39.3193 31.8481 39.5163 31.8482C39.7133 31.8483 39.9084 31.8871 40.0904 31.9626C40.2724 32.0381 40.4377 32.1486 40.577 32.288L41.6375 33.3485C41.8472 33.5583 41.99 33.8255 42.0479 34.1165C42.1057 34.4074 42.076 34.7089 41.9625 34.983C41.849 35.257 41.6568 35.4913 41.4102 35.6561C41.1636 35.8209 40.8721 35.9089 40.5755 35.909Z" fill="#3C60DC"/>
</svg>
