<svg width="48" height="41" viewBox="0 0 48 41" fill="none" xmlns="http://www.w3.org/2000/svg">
<path d="M44 6.50009H34V4.50003C34 2.294 32.2061 0.5 30 0.5H18C15.794 0.5 14 2.29391 14 4.50003V6.5H4.00003C1.79391 6.50009 4.15811e-08 8.294 4.15811e-08 10.5V16.5C4.15811e-08 18.7062 1.79391 20.5001 4.00003 20.5001H20.0001V19.5C20 19.3687 20.0258 19.2386 20.076 19.1172C20.1262 18.9959 20.1999 18.8856 20.2928 18.7927C20.3857 18.6998 20.4959 18.6262 20.6173 18.5759C20.7387 18.5257 20.8687 18.4999 21.0001 18.5H27.0001C27.1314 18.4999 27.2615 18.5257 27.3829 18.5759C27.5043 18.6262 27.6145 18.6998 27.7074 18.7927C27.8003 18.8856 27.874 18.9959 27.9242 19.1172C27.9744 19.2386 28.0002 19.3687 28.0001 19.5V20.5001H44.0002C46.2061 20.5001 48 18.7062 48 16.5V10.5C48 8.294 46.2061 6.50009 44 6.50009ZM30 6.50009H18V4.50003H30V6.50009ZM47.4453 21.5791C47.2786 21.4965 47.0921 21.4619 46.9068 21.4793C46.7215 21.4968 46.5448 21.5655 46.3964 21.6778C45.6855 22.2159 44.8573 22.5 43.9999 22.5H28V25.5C28.0001 25.6314 27.9743 25.7615 27.9241 25.8828C27.8739 26.0042 27.8002 26.1145 27.7073 26.2074C27.6144 26.3002 27.5042 26.3739 27.3828 26.4241C27.2614 26.4743 27.1313 26.5001 27 26.5001H21C20.8687 26.5001 20.7386 26.4743 20.6172 26.4241C20.4958 26.3739 20.3856 26.3002 20.2927 26.2074C20.1998 26.1145 20.1261 26.0042 20.0759 25.8828C20.0257 25.7615 19.9999 25.6314 20 25.5V22.5H4.00003C3.14259 22.5 2.3145 22.2159 1.6035 21.6778C1.45552 21.5646 1.27869 21.4953 1.09322 21.4779C0.907746 21.4605 0.721108 21.4955 0.554625 21.5791C0.387994 21.662 0.247799 21.7897 0.149815 21.948C0.0518306 22.1062 -5.3619e-05 22.2886 4.15811e-08 22.4747L4.15811e-08 36.5001C4.15811e-08 38.7061 1.79391 40.5001 4.00003 40.5001H44.0001C46.2061 40.5001 48.0001 38.7062 48.0001 36.5001V22.4747C48.0001 22.2886 47.9482 22.1062 47.8502 21.9479C47.7522 21.7897 47.6119 21.662 47.4453 21.5791Z" fill="#3C60DC"/>
</svg>
