<svg width="48" height="49" viewBox="0 0 48 49" fill="none" xmlns="http://www.w3.org/2000/svg">
<path d="M25.4817 17.0524C24.994 16.9553 24.4978 16.9064 24.0005 16.9062C19.8132 16.9063 16.4067 20.3127 16.4067 24.5C16.4067 28.6873 19.8132 32.0938 24.0005 32.0938C28.1877 32.0938 31.5942 28.6873 31.5942 24.5C31.5942 23.9932 31.5433 23.498 31.4481 23.0187L26.9837 27.4831C26.1867 28.28 25.1274 28.7188 24.0005 28.7188C22.8736 28.7188 21.8142 28.28 21.0174 27.4831C20.2205 26.6863 19.7817 25.6269 19.7817 24.5C19.7817 23.3731 20.2205 22.3137 21.0174 21.5169L25.4817 17.0524Z" fill="#3C60DC"/>
<path d="M45.8527 14.5801L42.827 17.6057C42.5288 17.9045 42.1875 18.157 41.8145 18.3546C42.481 20.282 42.8442 22.3494 42.8442 24.5C42.8442 34.8905 34.391 43.3438 24.0005 43.3438C13.61 43.3438 5.15674 34.8905 5.15674 24.5C5.15674 14.1095 13.61 5.65625 24.0005 5.65625C26.1521 5.65625 28.2204 6.01991 30.1481 6.68675C30.345 6.31342 30.5968 5.97175 30.8951 5.67313L33.9205 2.64781C30.8951 1.26903 27.5362 0.5 24.0005 0.5C10.7667 0.5 0.000488281 11.2662 0.000488281 24.5C0.000488281 37.7337 10.7667 48.5 24.0005 48.5C37.2342 48.5 48.0005 37.7337 48.0005 24.5C48.0005 20.9642 47.2315 17.6053 45.8527 14.58V14.5801Z" fill="#3C60DC"/>
<path d="M29.9733 12.5607L29.7171 9.52269C27.9405 8.84187 26.0136 8.46875 24.0005 8.46875C15.1608 8.46875 7.96924 15.6603 7.96924 24.5C7.96924 33.3397 15.1608 40.5312 24.0005 40.5312C32.8402 40.5312 40.0317 33.3397 40.0317 24.5C40.0317 22.4869 39.6586 20.56 38.9778 18.7834L35.9397 18.5271L33.7098 20.7566C34.1595 21.9191 34.4067 23.1809 34.4067 24.5C34.4067 30.2382 29.7386 34.9062 24.0005 34.9062C18.2623 34.9062 13.5942 30.2382 13.5942 24.5C13.5942 18.7618 18.2623 14.0938 24.0005 14.0938C25.3196 14.0938 26.5815 14.341 27.7439 14.7907L29.9733 12.5607Z" fill="#3C60DC"/>
<path d="M32.4764 8.77387L32.8858 13.6254L23.0063 23.5051C22.4569 24.054 22.4569 24.9446 23.0063 25.4935C23.2805 25.7682 23.6405 25.9056 24.0005 25.9056C24.3605 25.9056 24.7205 25.7682 24.9947 25.4935L34.8744 15.614L39.7259 16.023C39.9298 16.0402 40.135 16.0127 40.3271 15.9424C40.5193 15.8721 40.6938 15.7608 40.8385 15.6161L46.8044 9.64987C46.994 9.46039 47.1255 9.22065 47.1834 8.95891C47.2413 8.69716 47.2232 8.42433 47.1311 8.17256C47.039 7.92079 46.8769 7.7006 46.6638 7.53794C46.4507 7.37527 46.1956 7.27692 45.9284 7.25446L41.6094 6.89006L41.2453 2.57137C41.2228 2.30425 41.1244 2.04914 40.9617 1.83608C40.799 1.62302 40.5789 1.46089 40.3271 1.3688C40.0754 1.27671 39.8025 1.25848 39.5408 1.31627C39.279 1.37407 39.0392 1.50547 38.8496 1.69499L32.8837 7.66124C32.7389 7.8059 32.6275 7.9804 32.5572 8.17257C32.4868 8.36474 32.4593 8.56995 32.4764 8.77387Z" fill="#3C60DC"/>
</svg>
