<svg width="60" height="61" viewBox="0 0 60 61" fill="none" xmlns="http://www.w3.org/2000/svg">
<g clip-path="url(#clip0_6870_4940)">
<path fill-rule="evenodd" clip-rule="evenodd" d="M30 0.75C13.4531 0.75 0 14.2031 0 30.75C0 47.2969 13.4531 60.75 30 60.75C46.5469 60.75 60 47.2969 60 30.75C60 14.2031 46.5469 0.75 30 0.75Z" fill="white" fill-opacity="0.12"/>
<path fill-rule="evenodd" clip-rule="evenodd" d="M44.5078 20.6367C45.2344 21.3633 45.2344 22.5586 44.5078 23.2852L26.9297 40.8633C26.5664 41.2266 26.0859 41.4141 25.6055 41.4141C25.125 41.4141 24.6445 41.2266 24.2813 40.8633L15.4922 32.0742C14.7656 31.3477 14.7656 30.1523 15.4922 29.4258C16.2187 28.6992 17.4141 28.6992 18.1406 29.4258L25.6055 36.8906L41.8594 20.6367C42.5859 19.8984 43.7812 19.8984 44.5078 20.6367Z" fill="#C8F27C"/>
</g>
<defs>
<clipPath id="clip0_6870_4940">
<rect width="60" height="60" fill="white" transform="translate(0 0.75)"/>
</clipPath>
</defs>
</svg>
