<svg width="64" height="65" viewBox="0 0 64 65" fill="none" xmlns="http://www.w3.org/2000/svg">
<g clip-path="url(#clip0_6896_4346)">
<path d="M55.8724 25.7388L34.6648 4.53114C32.4724 2.33864 28.9046 2.33852 26.712 4.53114C24.741 6.50202 24.5713 9.50789 26.0268 11.6543L25.9973 11.8019C24.4683 19.4475 20.7459 26.403 15.2323 31.9165L5.5049 41.6439C3.30715 43.8418 3.30677 47.3988 5.5049 49.5966L10.8066 54.8984C13.0043 57.0961 16.5615 57.0963 18.7594 54.8984L20.0849 53.5729L29.3631 62.8511C31.5609 65.049 35.1179 65.0491 37.3158 62.8511C39.5084 60.6586 39.5084 57.091 37.3158 54.8985L33.3394 50.9221L34.6649 49.5966C36.8626 47.399 36.8629 43.842 34.6649 41.644L33.7641 40.7431C38.1953 37.6408 43.2276 35.4809 48.6018 34.406L48.7513 34.3761C50.9454 35.8575 53.9443 35.6194 55.8724 33.6913H55.8725C58.0648 31.4989 58.0648 27.9314 55.8724 25.7388ZM16.1085 52.2475C15.376 52.9799 14.19 52.98 13.4575 52.2474L8.15577 46.9456C7.42315 46.2129 7.42315 45.0274 8.15577 44.2948L17.4339 35.0165L25.3866 42.9693L16.1085 52.2475ZM34.6648 57.5493C35.3955 58.28 35.3955 59.4693 34.6648 60.2001C33.934 60.9309 32.7446 60.9309 32.0139 60.2001L22.7356 50.9219L25.3866 48.271L34.6648 57.5493ZM28.0375 45.6201C28.601 45.0566 29.4445 44.1935 30.7758 43.0565L32.0139 44.2948C32.7465 45.0274 32.7465 46.2129 32.0139 46.9456L30.6884 48.2711L28.0375 45.6201ZM28.1171 40.3981L20.0049 32.2859C24.3523 27.266 27.4655 21.3404 29.1311 14.9029L45.5001 31.2719C39.0626 32.9374 33.1371 36.0506 28.1171 40.3981ZM53.2211 31.0403C52.4885 31.7728 51.3029 31.7728 50.5703 31.0403L29.3629 9.83289C28.6303 9.10014 28.6303 7.91464 29.3629 7.18202C30.0955 6.44939 31.2813 6.44939 32.0139 7.18202L53.2211 28.3893C53.9519 29.1201 53.9519 30.3093 53.2211 31.0403Z" fill="#C8F27C"/>
<path d="M18.759 41.6442C18.0271 40.9123 16.8401 40.9123 16.1081 41.6442L13.4572 44.2951C12.7252 45.0271 12.7252 46.214 13.4572 46.946C14.1891 47.678 15.3762 47.678 16.1081 46.946L18.759 44.2951C19.491 43.5631 19.491 42.3762 18.759 41.6442ZM43.2737 0.5C42.2385 0.5 41.3992 1.33925 41.3992 2.3745V6.1235C41.3992 7.15875 42.2385 7.998 43.2737 7.998C44.309 7.998 45.1482 7.15875 45.1482 6.1235V2.3745C45.1482 1.33925 44.309 0.5 43.2737 0.5ZM58.2696 15.4958H54.5206C53.4853 15.4958 52.6461 16.335 52.6461 17.3703C52.6461 18.4055 53.4853 19.2447 54.5206 19.2447H58.2696C59.3048 19.2447 60.1441 18.4055 60.1441 17.3703C60.1441 16.335 59.3047 15.4958 58.2696 15.4958ZM55.8461 4.79787C55.1142 4.06588 53.9272 4.06588 53.1952 4.79787L49.4462 8.54688C48.7142 9.27888 48.7142 10.4657 49.4462 11.1978C50.1781 11.9298 51.3651 11.9299 52.0971 11.1978L55.8461 7.44875C56.5781 6.71675 56.5781 5.53 55.8461 4.79787Z" fill="#C8F27C"/>
</g>
<defs>
<clipPath id="clip0_6896_4346">
<rect width="64" height="64" fill="white" transform="translate(0 0.5)"/>
</clipPath>
</defs>
</svg>
