<svg width="64" height="65" viewBox="0 0 64 65" fill="none" xmlns="http://www.w3.org/2000/svg">
<g clip-path="url(#clip0_6896_4319)">
<path d="M25.4446 43.6267L34.2834 17.11C34.6108 16.1277 34.0799 15.0658 33.0975 14.7383C32.1153 14.4109 31.0533 14.9418 30.7258 15.9242L21.887 42.4408C21.5596 43.4232 22.0905 44.485 23.0729 44.8125C23.2695 44.878 23.4695 44.9092 23.666 44.9092C24.451 44.9093 25.1826 44.4124 25.4446 43.6267ZM38.6918 35.4005C41.7934 35.4005 44.3168 32.8772 44.3168 29.7755C44.3168 26.6739 41.7934 24.1505 38.6918 24.1505C35.5901 24.1505 33.0668 26.6739 33.0668 29.7755C33.0668 32.8772 35.5901 35.4005 38.6918 35.4005ZM38.6918 27.9005C39.7256 27.9005 40.5668 28.7417 40.5668 29.7755C40.5668 30.8094 39.7256 31.6505 38.6918 31.6505C37.6579 31.6505 36.8168 30.8094 36.8168 29.7755C36.8168 28.7417 37.6579 27.9005 38.6918 27.9005ZM17.4785 24.1505C14.3769 24.1505 11.8535 26.6739 11.8535 29.7755C11.8535 32.8772 14.3769 35.4005 17.4785 35.4005C20.5801 35.4005 23.1035 32.8772 23.1035 29.7755C23.1035 26.6739 20.5803 24.1505 17.4785 24.1505ZM17.4785 31.6505C16.4446 31.6505 15.6035 30.8094 15.6035 29.7755C15.6035 28.7417 16.4446 27.9005 17.4785 27.9005C18.5124 27.9005 19.3535 28.7417 19.3535 29.7755C19.3535 30.8094 18.5125 31.6505 17.4785 31.6505Z" fill="#C8F27C"/>
<path d="M63.625 23.75L57.0866 15.0321L57.3417 13.2467C57.3829 12.9586 57.3564 12.6648 57.2643 12.3886C57.1723 12.1125 57.0172 11.8615 56.8114 11.6557L52.8339 7.67822L56.8112 3.70072C57.5435 2.96859 57.5435 1.78134 56.8112 1.04909C56.0791 0.31697 54.8919 0.31697 54.1596 1.04909L50.1822 5.0266L46.2047 1.04909C45.9988 0.843386 45.7479 0.688384 45.4718 0.596336C45.1956 0.504287 44.9019 0.477715 44.6137 0.51872L26.0521 3.17034C25.6505 3.22774 25.2783 3.41384 24.9915 3.70072L2.01047 26.6817C-0.670156 29.3622 -0.670156 33.724 2.01047 36.4045L21.4558 55.85C21.845 56.2389 22.2795 56.5796 22.75 56.8647V57.625C22.75 61.4159 25.8341 64.5 29.625 64.5H57.125C60.9159 64.5 64 61.4159 64 57.625V24.875C64 24.4693 63.8684 24.0745 63.625 23.75ZM4.66209 33.7528C3.44359 32.5344 3.44359 30.5518 4.66209 29.3333L27.2011 6.79435L44.2158 4.36372L47.5305 7.67835L44.8788 10.33L43.553 9.0041C42.8209 8.27197 41.6336 8.27197 40.9013 9.0041C40.1691 9.73622 40.1691 10.9235 40.9013 11.6557L46.2047 16.9591C46.5709 17.3252 47.0507 17.5083 47.5305 17.5083C48.0102 17.5083 48.4902 17.3252 48.8562 16.9591C49.5885 16.227 49.5885 15.0397 48.8562 14.3075L47.5303 12.9816L50.182 10.33L53.4966 13.6446L51.0659 30.6593L28.527 53.1984C27.9367 53.7886 27.152 54.1136 26.3172 54.1136C25.4825 54.1136 24.6977 53.7885 24.1075 53.1984L4.66209 33.7528ZM60.25 57.625C60.25 59.3481 58.8481 60.75 57.125 60.75H29.625C27.9795 60.75 26.628 59.4715 26.5093 57.8557C28.2052 57.8087 29.8871 57.1415 31.1785 55.85L54.1595 32.869C54.4464 32.5821 54.6325 32.21 54.6899 31.8083L56.3365 20.2821L60.25 25.5V57.625Z" fill="#C8F27C"/>
</g>
<defs>
<clipPath id="clip0_6896_4319">
<rect width="64" height="64" fill="white" transform="translate(0 0.5)"/>
</clipPath>
</defs>
</svg>
