<svg width="64" height="65" viewBox="0 0 64 65" fill="none" xmlns="http://www.w3.org/2000/svg">
<g clip-path="url(#clip0_6896_4332)">
<path d="M10.5781 49.4959C10.148 49.4959 9.73546 49.325 9.4313 49.0209C9.12715 48.7167 8.95628 48.3042 8.95628 47.874C8.94121 46.1041 9.10422 44.3371 9.44283 42.5998C9.52911 42.1792 9.77861 41.81 10.1367 41.5731C10.4947 41.3361 10.9321 41.2508 11.3529 41.3358C11.7738 41.4208 12.1437 41.6692 12.3818 42.0265C12.6198 42.3839 12.7064 42.821 12.6227 43.2421C12.3294 44.7683 12.1878 46.3199 12.2 47.874C12.2 48.3042 12.0291 48.7167 11.7249 49.0209C11.4208 49.325 11.0083 49.4959 10.5781 49.4959Z" fill="#C8F27C"/>
<path d="M11.031 44.5424C10.9221 44.5428 10.8134 44.532 10.7067 44.51C10.2852 44.4247 9.91479 44.1756 9.67696 43.8173C9.43912 43.459 9.35331 43.021 9.43839 42.5994C10.4212 37.7339 12.7751 34.9227 14.851 32.4359C16.8372 30.0572 18.6083 27.9423 19.2581 24.2186C17.7993 24.9097 16.2047 25.2665 14.5904 25.263H12.3285C12.22 25.2626 12.1124 25.2837 12.0122 25.3253C11.9119 25.3669 11.821 25.4281 11.7446 25.5052C10.8277 26.4229 9.58385 26.9387 8.28663 26.9392C6.98941 26.9397 5.74513 26.4248 4.8275 25.5079C3.90987 24.591 3.39406 23.3471 3.39356 22.0499C3.39305 20.7527 3.90788 19.5084 4.82479 18.5908L6.12227 17.2933C7.18031 16.2375 8.02049 14.984 8.59503 13.6042C10.0363 10.1572 12.4874 8.00016 14.0077 6.92326V2.12477C14.0077 1.69463 14.1785 1.28211 14.4827 0.977956C14.7868 0.673802 15.1994 0.50293 15.6295 0.50293C15.9139 0.50293 22.3039 0.56456 24.954 5.65173C25.6701 5.82749 26.37 6.06368 27.0462 6.35778C29.2876 7.40008 30.9905 8.9365 32.115 10.9281C32.3261 11.3028 32.3798 11.746 32.2642 12.1602C32.1486 12.5745 31.8733 12.9258 31.4987 13.1371C31.124 13.3482 30.6808 13.4019 30.2666 13.2863C29.8523 13.1707 29.501 12.8954 29.2897 12.5208C28.5069 11.1325 27.2927 10.0458 25.6817 9.29331C25.433 9.17653 24.8113 8.93326 23.4489 8.6143C23.1959 8.55477 22.9609 8.4353 22.7637 8.26595C22.5665 8.0966 22.4129 7.88233 22.3158 7.64119C21.3286 5.20411 18.9024 4.28939 17.2611 3.94556V7.78932C17.2612 8.0667 17.1902 8.33947 17.0549 8.58158C16.9195 8.8237 16.7243 9.02705 16.488 9.17221C14.3688 10.4697 12.5415 12.5932 11.5976 14.8508C10.8601 16.6204 9.78226 18.228 8.42528 19.5823L7.12781 20.8797C6.96982 21.0312 6.84365 21.2127 6.75667 21.4136C6.66969 21.6144 6.62366 21.8306 6.62126 22.0495C6.61886 22.2684 6.66015 22.4855 6.74271 22.6882C6.82527 22.8909 6.94744 23.0751 7.10207 23.2301C7.2567 23.385 7.44068 23.5075 7.64324 23.5904C7.8458 23.6734 8.06287 23.7151 8.28175 23.7131C8.50062 23.7111 8.7169 23.6655 8.91792 23.5788C9.11894 23.4922 9.30066 23.3664 9.45245 23.2087C9.82945 22.8302 10.2777 22.5302 10.7714 22.3261C11.2651 22.1219 11.7943 22.0177 12.3285 22.0194H14.5894C15.5939 22.0215 16.5889 21.8245 17.5168 21.4398C18.4447 21.0551 19.2872 20.4903 19.9955 19.778C20.2223 19.551 20.5114 19.3964 20.8261 19.3338C21.1408 19.2711 21.467 19.3033 21.7634 19.4261C22.0599 19.5489 22.3132 19.7569 22.4914 20.0237C22.6696 20.2906 22.7647 20.6043 22.7645 20.9251C22.7645 28.0277 20.0063 31.3266 17.3389 34.5173C15.3322 36.9176 13.4368 39.1838 12.6172 43.2438C12.5428 43.6098 12.3443 43.9389 12.0553 44.1755C11.7663 44.4121 11.4045 44.5417 11.031 44.5424ZM20.654 56.9981H10.578C9.37364 56.995 8.21959 56.5148 7.36849 55.6627C6.51738 54.8106 6.03856 53.6559 6.03685 52.4516V50.7984C6.03828 49.593 6.51775 48.4374 7.37009 47.5851C8.22242 46.7327 9.37802 46.2532 10.5834 46.2518H25.3216C25.7518 46.2518 26.1643 46.4227 26.4684 46.7268C26.7726 47.031 26.9435 47.4435 26.9435 47.8737C26.9435 48.3038 26.7726 48.7163 26.4684 49.0205C26.1643 49.3246 25.7518 49.4955 25.3216 49.4955H10.578C10.2336 49.4975 9.9039 49.6356 9.66085 49.8796C9.4178 50.1237 9.28109 50.4539 9.28053 50.7984V52.4516C9.28109 52.796 9.4178 53.1263 9.66085 53.3703C9.9039 53.6144 10.2336 53.7525 10.578 53.7545H20.654C21.0841 53.7545 21.4966 53.9253 21.8008 54.2295C22.1049 54.5336 22.2758 54.9462 22.2758 55.3763C22.2758 55.8064 22.1049 56.2189 21.8008 56.5231C21.4966 56.8273 21.0841 56.9981 20.654 56.9981ZM56.0523 64.4997H29.2465C28.041 64.4985 26.8852 64.0192 26.0328 63.1668C25.1804 62.3144 24.7011 61.1586 24.6999 59.9531V58.301C24.7011 57.0955 25.1804 55.9398 26.0328 55.0874C26.8852 54.235 28.041 53.7556 29.2465 53.7545H56.0523C57.2577 53.7556 58.4135 54.235 59.2659 55.0874C60.1183 55.9398 60.5977 57.0955 60.5988 58.301V59.9531C60.5977 61.1586 60.1183 62.3144 59.2659 63.1668C58.4135 64.0192 57.2577 64.4985 56.0523 64.4997ZM29.2465 56.9981C28.901 56.9984 28.5698 57.1358 28.3255 57.38C28.0812 57.6243 27.9439 57.9556 27.9436 58.301V59.9531C27.9439 60.2986 28.0812 60.6298 28.3255 60.8741C28.5698 61.1184 28.901 61.2557 29.2465 61.256H56.0523C56.3977 61.2557 56.7289 61.1184 56.9732 60.8741C57.2175 60.6298 57.3548 60.2986 57.3551 59.9531V58.301C57.3548 57.9556 57.2175 57.6243 56.9732 57.38C56.7289 57.1358 56.3977 56.9984 56.0523 56.9981H29.2465ZM49.9693 30.9189H35.3295C34.0586 30.8999 32.8462 30.3818 31.9542 29.4763C31.0622 28.5709 30.5622 27.3509 30.5622 26.0799C30.5622 24.8089 31.0622 23.5889 31.9542 22.6835C32.8462 21.778 34.0586 21.2599 35.3295 21.2409H49.9693C51.2401 21.2599 52.4525 21.778 53.3445 22.6835C54.2365 23.5889 54.7365 24.8089 54.7365 26.0799C54.7365 27.3509 54.2365 28.5709 53.3445 29.4763C52.4525 30.3818 51.2401 30.8999 49.9693 30.9189ZM35.3295 24.4846C34.9135 24.4954 34.5183 24.6682 34.2279 24.9662C33.9376 25.2642 33.7751 25.6638 33.7751 26.0799C33.7751 26.496 33.9376 26.8956 34.2279 27.1936C34.5183 27.4916 34.9135 27.6644 35.3295 27.6753H49.9693C50.3852 27.6644 50.7804 27.4916 51.0708 27.1936C51.3611 26.8956 51.5236 26.496 51.5236 26.0799C51.5236 25.6638 51.3611 25.2642 51.0708 24.9662C50.7804 24.6682 50.3852 24.4954 49.9693 24.4846H35.3295Z" fill="#C8F27C"/>
<path d="M42.6489 24.4842C41.019 24.4842 39.4256 24.0009 38.0704 23.0953C36.7151 22.1898 35.6588 20.9027 35.0351 19.3968C34.4113 17.8909 34.2481 16.2339 34.5661 14.6353C34.8841 13.0367 35.669 11.5683 36.8215 10.4157C37.9741 9.26318 39.4425 8.47829 41.0411 8.16031C42.6398 7.84232 44.2968 8.00552 45.8026 8.62927C47.3085 9.25302 48.5956 10.3093 49.5011 11.6646C50.4067 13.0198 50.89 14.6131 50.89 16.2431C50.8877 18.428 50.0187 20.5229 48.4737 22.0679C46.9287 23.6129 44.8339 24.4819 42.6489 24.4842ZM42.6489 11.2456C41.6605 11.2456 40.6943 11.5387 39.8725 12.0879C39.0506 12.637 38.4101 13.4175 38.0319 14.3306C37.6536 15.2438 37.5547 16.2486 37.7475 17.218C37.9403 18.1874 38.4163 19.0779 39.1152 19.7768C39.8141 20.4757 40.7045 20.9517 41.6739 21.1445C42.6434 21.3373 43.6482 21.2383 44.5613 20.8601C45.4745 20.4819 46.255 19.8413 46.8041 19.0195C47.3532 18.1977 47.6463 17.2315 47.6463 16.2431C47.6449 14.9181 47.1179 13.6478 46.181 12.7109C45.2441 11.774 43.9739 11.2471 42.6489 11.2456ZM30.4451 56.9978C30.0149 56.9978 29.6024 56.8269 29.2983 56.5227C28.9941 56.2186 28.8232 55.8061 28.8232 55.3759V55.1272C28.8287 50.6152 30.2441 46.2176 32.8714 42.5493L33.0098 42.3536C35.0338 39.5143 36.9346 36.8318 36.9346 29.2967C36.9346 28.8666 37.1055 28.4541 37.4096 28.1499C37.7138 27.8458 38.1263 27.6749 38.5565 27.6749C38.9866 27.6749 39.3991 27.8458 39.7033 28.1499C40.0074 28.4541 40.1783 28.8666 40.1783 29.2967C40.1783 37.8665 37.7758 41.2486 35.6566 44.2317L35.5193 44.4253C33.2809 47.5462 32.0738 51.2887 32.0669 55.1294V55.3781C32.0664 55.8079 31.8952 56.2198 31.5911 56.5235C31.287 56.8272 30.8748 56.9978 30.4451 56.9978ZM54.8527 56.9978C54.4226 56.9978 54.01 56.8269 53.7059 56.5227C53.4017 56.2186 53.2309 55.8061 53.2309 55.3759V55.1272C53.224 51.2866 52.0169 47.5441 49.7785 44.4231L49.6412 44.2296C47.522 41.2465 45.1195 37.8644 45.1195 29.2946C45.1195 28.8644 45.2904 28.4519 45.5945 28.1477C45.8987 27.8436 46.3112 27.6727 46.7413 27.6727C47.1715 27.6727 47.584 27.8436 47.8882 28.1477C48.1923 28.4519 48.3632 28.8644 48.3632 29.2946C48.3632 36.8296 50.2683 39.5122 52.2859 42.3515L52.4243 42.5472C55.0528 46.2158 56.4689 50.6142 56.4745 55.1272V55.3759C56.4745 55.5889 56.4326 55.7998 56.3511 55.9966C56.2696 56.1934 56.1501 56.3721 55.9995 56.5227C55.8489 56.6733 55.6701 56.7928 55.4734 56.8743C55.2766 56.9558 55.0657 56.9978 54.8527 56.9978Z" fill="#C8F27C"/>
</g>
<defs>
<clipPath id="clip0_6896_4332">
<rect width="64" height="64" fill="white" transform="translate(0 0.5)"/>
</clipPath>
</defs>
</svg>
